<?xml version="1.0" encoding="utf-8"?>
<!-- Generator: Adobe Illustrator 15.0.2, SVG Export Plug-In . SVG Version: 6.00 Build 0)  -->
<!DOCTYPE svg PUBLIC "-//W3C//DTD SVG 1.1//EN" "http://www.w3.org/Graphics/SVG/1.1/DTD/svg11.dtd">
<svg version="1.1" id="Layer_1" xmlns="http://www.w3.org/2000/svg" xmlns:xlink="http://www.w3.org/1999/xlink" x="0px" y="0px"
	 width="512px" height="512px" viewBox="0 0 512 512" style="background-color:#ffffff00" xml:space="preserve">
<path d="M292.452,0C171.154,0,73.143,98.256,73.143,219.429H0l94.964,94.964l1.709,3.536
	l98.375-98.5h-73.144c0-94.232,76.435-170.667,170.667-170.667c94.238,0,170.667,76.435,170.667,170.667
	c0,94.238-76.429,170.667-170.667,170.667c-47.179,0-89.72-19.263-120.565-50.096l-34.5,34.488
	c39.619,39.75,94.357,64.369,154.946,64.369C413.738,438.857,512,340.596,512,219.429C512,98.256,413.738,0,292.452,0z
	 M268.19,121.904V243.81l104.357,61.929l17.548-29.619l-85.334-50.596V121.904H268.19z" fill="#2D2DDE"/>
</svg>
